<?xml version="1.0" standalone="no"?>
<!DOCTYPE svg PUBLIC "-//W3C//DTD SVG 20010904//EN"
 "http://www.w3.org/TR/2001/REC-SVG-20010904/DTD/svg10.dtd">
<svg version="1.0" xmlns="http://www.w3.org/2000/svg"
 width="1072.000000pt" height="1072.000000pt" viewBox="0 0 1072.000000 1072.000000"
 preserveAspectRatio="xMidYMid meet">
<metadata>
Created by potrace 1.14, written by Peter Selinger 2001-2017
</metadata>
<g transform="translate(0.000000,1072.000000) scale(0.100000,-0.100000)"
fill="#000000" stroke="none">
<path d="M5185 10713 c-31 -3 -126 -19 -180 -29 -86 -15 -243 -61 -262 -77 -7
-5 -13 -7 -13 -4 0 20 -347 -159 -358 -185 -2 -5 -10 -8 -17 -8 -8 0 -20 -6
-27 -13 -7 -7 -33 -28 -58 -47 -25 -19 -54 -42 -64 -50 -49 -38 -216 -211
-256 -265 -25 -33 -48 -62 -51 -65 -11 -8 -151 -242 -153 -255 -1 -6 -10 -24
-19 -38 -10 -15 -15 -27 -11 -27 3 0 0 -10 -8 -22 -17 -28 -81 -212 -93 -268
-1 -3 -7 -30 -13 -60 -33 -156 -41 -250 -37 -430 2 -91 6 -174 8 -186 3 -12 8
-45 12 -75 4 -30 9 -57 12 -62 2 -4 7 -20 9 -35 10 -56 32 -130 62 -212 3 -8
6 -17 7 -20 7 -19 18 -49 28 -70 6 -14 10 -28 9 -32 -1 -5 2 -8 8 -8 6 0 9 -3
8 -7 -7 -22 144 -277 207 -350 6 -6 21 -26 35 -44 76 -101 353 -349 389 -349
6 0 11 -3 11 -8 0 -4 17 -16 38 -27 20 -11 43 -26 50 -32 7 -7 24 -16 38 -19
13 -3 24 -10 24 -15 0 -5 4 -9 10 -9 5 0 42 -15 82 -34 40 -18 109 -46 153
-61 44 -15 87 -30 95 -33 19 -6 19 -7 115 -27 78 -16 100 -20 195 -31 59 -8
352 -11 365 -5 5 3 21 6 35 7 28 2 107 12 130 17 8 2 42 9 75 16 33 7 69 16
80 21 11 5 50 18 87 29 62 19 119 43 218 89 19 9 38 15 43 14 4 -1 7 2 7 6 0
5 18 17 40 27 22 10 40 23 40 28 0 6 3 8 6 4 6 -6 103 61 199 136 54 42 205
184 205 192 0 3 8 13 18 23 44 46 82 92 82 99 0 5 14 23 31 41 16 17 27 32 24
32 -4 0 8 18 25 40 17 22 28 40 23 40 -4 0 -3 4 3 8 5 4 24 32 42 64 85 153
178 422 198 576 2 21 8 66 13 101 12 90 12 291 0 381 -5 41 -11 89 -13 107 -3
18 -7 40 -10 50 -3 10 -8 30 -11 46 -11 58 -15 74 -39 147 -45 140 -159 390
-178 390 -4 0 -8 5 -8 10 0 16 -61 107 -97 145 -7 8 -13 16 -13 19 0 18 -233
256 -295 302 -22 16 -42 31 -45 35 -3 3 -43 30 -90 61 -107 71 -265 153 -332
173 -5 1 -11 4 -15 5 -5 1 -11 2 -15 1 -5 0 -8 3 -8 9 0 6 -3 9 -7 8 -5 -1
-40 8 -78 20 -39 12 -81 24 -94 27 -12 2 -30 6 -39 9 -16 5 -26 7 -102 20 -19
3 -48 9 -65 12 -35 6 -376 13 -420 7z"/>
<path d="M1696 8722 c-2 -1 -57 -4 -122 -7 -148 -5 -325 -20 -364 -30 -8 -3
-31 -7 -50 -10 -19 -3 -64 -12 -99 -21 -36 -9 -72 -17 -80 -19 -9 -2 -47 -15
-86 -30 -38 -14 -75 -27 -80 -28 -6 -1 -21 -10 -35 -20 -13 -9 -28 -17 -32
-17 -24 0 -178 -131 -178 -151 0 -4 -6 -14 -13 -21 -20 -22 -46 -79 -61 -138
-19 -70 -13 -268 9 -360 9 -36 17 -73 18 -82 1 -10 5 -18 10 -18 5 0 7 -6 4
-14 -3 -7 -2 -17 3 -22 6 -7 28 -66 35 -94 1 -3 6 -16 12 -30 6 -14 21 -50 33
-80 32 -81 192 -390 202 -390 4 0 8 -7 8 -15 0 -13 23 -53 88 -155 9 -14 17
-27 17 -30 3 -13 41 -70 48 -70 4 0 7 -5 7 -11 0 -13 182 -286 344 -516 16
-24 35 -43 41 -43 6 0 40 15 75 34 62 33 309 120 367 130 15 2 28 5 28 6 0 11
251 52 400 65 105 10 318 9 425 0 47 -4 102 -8 123 -8 20 -1 37 -4 37 -7 0 -3
17 -7 39 -8 21 -2 47 -4 57 -7 11 -2 57 -11 104 -20 47 -9 92 -19 100 -22 8
-3 22 -7 30 -9 60 -12 275 -89 375 -135 28 -12 52 -23 55 -23 17 -4 186 -96
260 -141 83 -52 239 -160 250 -174 3 -3 29 -26 59 -51 29 -24 71 -61 93 -82
22 -21 45 -38 50 -38 6 0 9 -2 6 -5 -2 -3 25 -35 62 -72 70 -71 127 -136 170
-192 14 -18 30 -38 35 -44 6 -7 26 -34 45 -62 18 -27 36 -52 40 -55 24 -20
214 -371 257 -476 46 -111 119 -340 138 -434 2 -8 10 -49 18 -90 60 -293 57
-645 -9 -1000 -12 -66 -73 -296 -89 -333 -8 -20 -13 -37 -11 -37 3 0 -1 -12
-9 -27 -8 -15 -12 -30 -9 -35 3 -4 1 -8 -4 -8 -5 0 -9 -6 -9 -12 0 -7 -8 -31
-18 -53 -10 -22 -19 -42 -20 -45 -11 -41 -160 -311 -178 -322 -7 -4 -8 -8 -4
-8 9 0 -80 -131 -157 -230 -28 -36 -55 -71 -61 -78 -12 -17 -264 -269 -297
-298 -14 -12 -38 -30 -54 -40 -16 -10 -35 -24 -42 -31 -8 -7 -35 -27 -60 -45
-26 -17 -49 -33 -51 -34 -5 -4 31 -88 79 -186 21 -42 36 -79 33 -82 -4 -3 -2
-6 4 -6 6 0 14 -12 18 -27 3 -15 10 -30 13 -33 4 -3 42 -75 85 -160 87 -175
152 -295 210 -390 22 -36 48 -81 59 -100 33 -57 92 -145 100 -148 5 -2 8 -9 8
-14 0 -12 80 -121 93 -126 4 -2 7 -10 7 -18 0 -8 7 -17 15 -20 8 -4 15 -10 15
-15 0 -12 13 -27 127 -145 94 -96 173 -164 192 -164 6 0 11 -4 11 -9 0 -13
115 -67 184 -87 74 -20 198 -14 272 15 158 62 308 191 499 432 14 19 154 224
172 254 7 11 44 74 82 140 39 66 75 126 81 133 6 6 8 12 5 12 -4 0 2 12 13 28
10 15 33 56 50 92 18 36 37 72 42 80 22 32 250 515 250 528 0 9 -26 32 -85 77
-22 16 -45 34 -51 40 -6 5 -40 35 -75 65 -81 69 -211 199 -269 269 -25 30 -53
63 -62 73 -10 10 -18 21 -18 26 0 4 -10 18 -23 32 -26 29 -129 182 -171 254
-71 123 -189 383 -222 491 -2 6 -15 48 -29 95 -56 181 -89 356 -102 535 -8
123 -4 480 6 480 1 0 4 25 6 55 6 82 50 290 89 422 98 332 269 656 490 928 67
83 62 76 163 182 161 167 318 291 528 415 92 55 280 152 308 159 4 1 9 3 12 4
3 1 8 3 13 5 4 1 23 9 42 17 35 15 70 30 80 33 3 1 12 4 20 8 31 12 125 42
135 43 6 0 35 8 65 17 30 9 71 19 90 23 46 8 65 12 65 14 0 1 11 3 25 5 14 1
41 6 60 10 19 3 51 8 70 10 19 2 46 6 59 9 31 7 223 19 291 19 162 -2 369 -19
475 -39 11 -3 35 -7 54 -10 18 -3 43 -8 55 -11 11 -3 30 -6 41 -8 11 -2 21 -4
23 -5 3 -3 12 -5 57 -15 22 -4 46 -12 53 -18 6 -5 12 -7 12 -4 0 7 183 -54
235 -78 72 -32 111 -48 123 -51 7 -1 25 16 40 39 15 23 29 44 32 47 12 11 100
141 100 148 0 4 9 14 20 22 11 8 20 20 20 26 0 7 6 19 13 26 19 20 116 172
116 181 0 5 6 14 15 20 14 12 36 45 77 122 12 22 25 42 29 45 3 3 9 12 13 20
4 8 20 38 37 65 17 28 33 58 37 68 3 9 10 17 15 17 5 0 6 5 3 10 -3 6 -1 10 4
10 6 0 11 9 11 19 0 11 4 21 9 23 8 3 143 264 140 270 0 2 11 29 25 62 14 32
26 65 26 72 0 8 5 14 12 14 6 0 8 3 5 6 -3 4 -2 15 4 26 6 11 13 32 15 46 3
15 9 31 13 37 5 5 11 24 14 40 3 17 12 64 22 105 9 41 18 116 20 165 8 264
-104 422 -378 531 -84 33 -252 77 -342 89 -27 4 -63 9 -80 11 -253 35 -817 30
-1245 -11 -19 -2 -74 -6 -122 -10 -55 -4 -88 -11 -89 -19 0 -6 -2 -18 -3 -26
-2 -8 -6 -49 -10 -90 -10 -118 -26 -210 -53 -310 -8 -30 -16 -62 -18 -70 -2
-8 -4 -16 -5 -17 -2 -2 -4 -7 -5 -13 -1 -5 -4 -12 -5 -15 -1 -3 -4 -9 -5 -15
-1 -5 -4 -13 -5 -17 -2 -5 -4 -12 -5 -18 -1 -5 -7 -23 -14 -40 -7 -16 -13 -32
-13 -35 -2 -24 -155 -358 -169 -370 -3 -3 -18 -27 -34 -55 -36 -66 -125 -198
-139 -207 -6 -4 -7 -8 -3 -8 5 0 2 -7 -5 -15 -29 -32 -44 -50 -65 -78 -87
-116 -285 -312 -443 -437 -114 -91 -392 -265 -404 -253 -3 4 -6 2 -6 -4 0 -9
-19 -19 -180 -91 -53 -24 -292 -112 -310 -114 -11 -1 -26 -6 -63 -18 -21 -6
-41 -9 -44 -6 -3 3 -13 1 -23 -4 -9 -5 -28 -11 -41 -14 -13 -3 -34 -7 -45 -10
-30 -6 -94 -17 -124 -21 -110 -13 -142 -16 -190 -20 -69 -6 -308 -6 -375 -1
-72 6 -173 17 -198 22 -12 2 -37 7 -56 10 -18 3 -43 8 -55 10 -11 2 -37 7 -56
10 -19 3 -39 8 -43 11 -5 3 -22 7 -40 10 -70 11 -282 78 -372 118 -16 7 -37
15 -45 17 -8 2 -19 6 -25 10 -5 5 -71 39 -145 76 -122 62 -193 103 -227 132
-7 5 -16 10 -21 10 -4 0 -17 7 -27 15 -11 8 -38 28 -60 45 -80 59 -136 104
-166 133 -11 9 -22 17 -25 17 -7 0 -237 230 -274 275 -53 62 -130 165 -182
241 -73 109 -78 117 -84 137 -4 9 -9 17 -13 17 -3 0 -12 15 -20 33 -8 17 -17
34 -20 37 -8 7 -109 213 -113 231 -2 8 -6 16 -10 19 -4 3 -9 15 -11 25 -4 18
-15 51 -34 95 -3 8 -7 18 -8 23 -2 4 -3 8 -5 10 -1 1 -3 9 -5 17 -3 8 -18 62
-35 120 -17 58 -32 114 -34 125 -5 24 -17 92 -22 120 -2 11 -7 54 -10 95 -6
81 -11 121 -16 125 -2 1 -32 6 -68 9 -36 4 -74 9 -85 11 -11 3 -42 7 -70 10
-27 2 -61 7 -75 9 -14 2 -61 7 -105 11 -44 3 -93 8 -110 11 -16 2 -97 6 -180
9 -82 3 -165 7 -182 8 -18 2 -33 -1 -33 -6 0 -4 -5 -5 -10 -2 -10 6 -99 12
-104 7z"/>
<path d="M2294 5701 c-3 -3 -18 -6 -32 -7 -46 -2 -207 -28 -207 -34 0 -2 -10
-4 -55 -13 -87 -18 -399 -147 -408 -169 -2 -5 -8 -8 -13 -8 -6 0 -22 -8 -37
-18 -15 -11 -47 -32 -72 -48 -25 -16 -47 -31 -50 -34 -3 -3 -32 -25 -65 -50
-84 -63 -328 -309 -307 -310 4 -1 -2 -9 -14 -18 -11 -10 -23 -22 -25 -27 -2
-6 -25 -41 -50 -80 -56 -84 -129 -221 -129 -241 0 -8 -3 -14 -8 -14 -6 0 -17
-27 -36 -85 -3 -10 -10 -29 -29 -80 -6 -16 -12 -34 -13 -40 -1 -5 -9 -37 -18
-70 -9 -33 -19 -73 -22 -90 -2 -16 -7 -37 -9 -45 -2 -8 -7 -42 -11 -75 -3 -33
-8 -69 -10 -80 -5 -25 -5 -286 0 -340 2 -22 9 -67 15 -100 6 -33 13 -73 16
-90 2 -16 9 -45 14 -62 5 -18 8 -33 6 -33 -2 0 10 -37 26 -82 16 -46 31 -91
34 -101 2 -11 31 -74 64 -140 58 -118 144 -257 206 -332 17 -20 38 -46 48 -58
32 -39 153 -161 188 -190 78 -63 146 -115 177 -132 17 -11 32 -23 32 -27 0 -4
9 -8 20 -8 11 0 20 -4 20 -9 0 -5 57 -37 128 -71 70 -34 135 -66 144 -71 10
-5 27 -9 37 -9 11 0 22 -4 25 -9 3 -5 27 -14 53 -21 27 -7 53 -14 58 -16 28
-8 62 -16 82 -19 11 -2 29 -6 40 -9 10 -3 34 -8 53 -12 19 -3 42 -7 50 -9 34
-6 209 -18 265 -18 66 0 226 12 259 19 32 7 86 15 110 18 12 1 26 5 31 8 6 3
27 9 49 12 21 4 43 9 50 13 6 4 19 9 29 10 10 2 55 17 100 35 45 18 85 31 90
30 4 -1 7 3 7 8 0 6 6 10 13 10 12 0 106 48 211 109 43 25 172 119 219 159
114 100 297 304 297 332 0 5 4 10 8 10 5 0 19 19 33 41 13 23 32 53 41 68 28
42 124 242 134 276 1 6 12 36 24 68 21 59 48 153 56 197 2 14 9 48 14 75 33
172 33 458 0 625 -6 30 -14 66 -16 80 -10 50 -42 158 -53 179 -7 12 -10 21 -7
21 3 0 -3 19 -13 43 -21 48 -34 80 -36 87 -12 48 -171 314 -210 354 -8 8 -15
17 -15 20 0 24 -237 259 -342 339 -48 37 -90 67 -93 67 -4 0 -26 14 -50 30
-24 17 -48 30 -54 30 -5 0 -16 6 -23 13 -44 41 -348 158 -473 182 -55 11 -122
22 -180 31 -53 8 -384 12 -391 5z"/>
<path d="M8106 5703 c-2 -2 -30 -6 -62 -8 -33 -3 -70 -8 -84 -11 -14 -3 -38
-7 -55 -10 -16 -3 -48 -10 -70 -16 -22 -6 -44 -12 -50 -13 -5 -1 -13 -3 -17
-5 -12 -4 -20 -6 -60 -14 -21 -5 -38 -13 -38 -19 0 -6 -3 -8 -6 -4 -8 7 -173
-62 -254 -108 -36 -20 -73 -38 -82 -42 -10 -3 -18 -9 -18 -14 0 -5 -5 -9 -10
-9 -13 0 -182 -122 -228 -165 -81 -75 -242 -246 -242 -258 0 -4 -11 -19 -23
-33 -27 -28 -143 -213 -141 -223 1 -3 -6 -17 -15 -31 -20 -29 -35 -62 -33 -72
1 -5 -2 -8 -8 -8 -5 0 -10 -7 -10 -16 0 -9 -6 -30 -14 -47 -17 -37 -78 -210
-76 -217 0 -3 -7 -36 -15 -75 -17 -71 -19 -86 -32 -205 -8 -74 -8 -275 0 -365
14 -147 74 -380 130 -504 12 -25 22 -48 23 -51 1 -3 5 -15 9 -27 4 -13 11 -23
16 -23 5 0 9 -6 9 -14 0 -8 24 -54 52 -103 57 -95 55 -93 94 -140 14 -18 22
-33 18 -33 -4 0 2 -8 12 -18 10 -9 43 -46 73 -80 86 -102 170 -180 276 -260
28 -20 52 -40 53 -44 2 -5 8 -8 12 -8 5 0 28 -13 52 -29 24 -16 61 -39 83 -50
22 -12 47 -26 55 -31 61 -37 305 -132 315 -122 3 3 5 1 5 -4 0 -5 8 -10 18
-11 9 -1 44 -8 77 -16 169 -43 399 -60 565 -43 118 12 148 16 180 24 20 5 43
8 53 6 9 -1 17 1 17 5 0 3 25 12 56 20 99 22 206 62 319 117 121 59 168 85
173 97 2 4 8 7 13 7 8 0 93 57 126 85 7 5 27 21 45 35 72 54 266 261 325 346
35 49 66 94 70 100 35 47 152 285 157 318 1 6 4 16 7 21 7 11 29 76 29 87 1 4
7 26 15 48 8 22 14 42 15 45 0 3 0 6 1 8 22 73 51 309 52 427 0 47 -14 264
-18 270 -2 3 -6 21 -9 40 -3 20 -12 65 -21 100 -9 36 -17 74 -19 86 -2 11 -6
26 -10 33 -4 6 -10 23 -12 38 -3 15 -8 32 -13 38 -4 5 -13 28 -20 50 -20 59
-123 267 -143 287 -10 10 -18 24 -18 32 0 8 -3 16 -7 18 -5 2 -24 26 -43 53
-112 163 -302 347 -478 463 -35 23 -67 42 -72 42 -5 0 -10 4 -12 8 -1 4 -48
29 -103 56 -55 26 -108 52 -117 57 -17 9 -186 69 -191 67 -1 0 -22 5 -47 12
-25 7 -55 14 -67 16 -13 2 -34 6 -48 9 -56 11 -72 14 -130 21 -64 7 -352 13
-359 7z"/>
</g>
</svg>
