<?xml version="1.0" encoding="UTF-8"?>
<svg version="1.2" viewBox="0 0 400 400" xml:space="preserve" xmlns="http://www.w3.org/2000/svg">
   <title>Sematic</title>
   <g transform="matrix(1.8033797,0,0,1.8033797,-160.7756,-160.32127)">
		<path fill="#1d82c8" d="m 194.4,308.2 c -5.5,-2.7 -11.7,-11.1 -19,-25.9 l -4.1,-8.3 2.3,-1.7 c 47.8,-36 4,-115.5 -51.3,-93.2 l -4.5,1.8 -3.8,-5.6 C 90.4,140.9 96.4,128 134.4,131.1 c 4.8,0.4 9.3,0.7 10,0.7 0.9,0 1.6,1.6 2.5,6.5 11.1,56.4 95.7,56 105.5,-0.6 1.2,-6.7 -1.4,-6.8 21.5,-6.4 29.3,0.5 33.2,9.8 15.7,37.7 -8,12.8 -6.9,11.9 -12.7,9.9 -54.4,-18.9 -96.3,48.5 -55.6,89.3 l 6.4,6.4 -4.5,8.9 c -11.2,22.1 -19.6,29.3 -28.8,24.7 z"/>
		<path fill="#df3409" d="m 163.1,126.1 c 0.5,-20.4 17.5,-36.6 37.9,-36 20.4,0.5 36.6,17.4 36,37.9 -0.5,20.4 -17.5,36.6 -38,36 -20.3,-0.4 -36.5,-17.4 -35.9,-37.9 z"/>
		<path fill="#f7bb0f" d="m 222.4,228.9 c 0.5,-20.5 17.5,-36.6 37.9,-36 20.4,0.5 36.6,17.5 36,37.9 -0.5,20.5 -17.5,36.6 -37.9,36.1 -20.4,-0.6 -36.5,-17.6 -36,-38 z"/>
		<path fill="#5cad2a" d="m 103.8,228.9 c 0.5,-20.5 17.5,-36.6 37.9,-36 20.4,0.5 36.6,17.5 36,37.9 -0.5,20.5 -17.5,36.6 -37.9,36.1 -20.4,-0.6 -36.6,-17.6 -36,-38 z"/>
	</g>
</svg>
