<?xml version="1.0" encoding="utf-8"?>
<svg version="1.2" baseProfile="tiny-ps" xmlns="http://www.w3.org/2000/svg" viewBox="200 90 220 220" xml:space="preserve">
    <title>Sematic</title>
    <path fill="#1D82C8" d="M194.4,308.2c-5.5-2.7-11.7-11.1-19-25.9l-4.1-8.3l2.3-1.7c47.8-36,4-115.5-51.3-93.2l-4.5,1.8l-3.8-5.6
        c-23.6-34.4-17.6-47.3,20.4-44.2c4.8,0.4,9.3,0.7,10,0.7c0.9,0,1.6,1.6,2.5,6.5c11.1,56.4,95.7,56,105.5-0.6c1.2-6.7-1.4-6.8,21.5-6.4
        c29.3,0.5,33.2,9.8,15.7,37.7c-8,12.8-6.9,11.9-12.7,9.9c-54.4-18.9-96.3,48.5-55.6,89.3l6.4,6.4l-4.5,8.9
        C212,305.6,203.6,312.8,194.4,308.2z"/>
    <path fill="#DF3409" d="M163.1,126.1c0.5-20.4,17.5-36.6,37.9-36c20.4,0.5,36.6,17.4,36,37.9c-0.5,20.4-17.5,36.6-38,36
        C178.7,163.6,162.5,146.6,163.1,126.1z"/>
    <path fill="#F7BB0F" d="M222.4,228.9c0.5-20.5,17.5-36.6,37.9-36c20.4,0.5,36.6,17.5,36,37.9c-0.5,20.5-17.5,36.6-37.9,36.1
        C238,266.3,221.9,249.3,222.4,228.9z"/>
    <path fill="#5CAD2A" d="M103.8,228.9c0.5-20.5,17.5-36.6,37.9-36c20.4,0.5,36.6,17.5,36,37.9c-0.5,20.5-17.5,36.6-37.9,36.1
        C119.4,266.3,103.2,249.3,103.8,228.9z"/>
</svg>
