<?xml version="1.0" encoding="UTF-8"?>
<svg version="1.2" viewBox="0 0 400 400" xml:space="preserve" xmlns="http://www.w3.org/2000/svg">
	<path fill="#1d82c8" d="m 189.80141,395.48035 c -9.91858,-4.86912 -21.09954,-20.01751 -34.26421,-46.70753 l -7.39386,-14.96805 4.14778,-3.06575 c 86.20155,-64.92167 7.21351,-208.29035 -92.513383,-168.07499 l -8.115208,3.24609 -6.852843,-10.09893 C 2.2499249,93.77493 13.070203,70.511332 81.598632,76.101809 c 8.656222,0.721352 16.771431,1.262365 18.033797,1.262365 1.623041,0 2.885411,2.885408 4.508451,11.721969 20.01751,101.710617 172.58344,100.989267 190.25656,-1.082028 2.16405,-12.082644 -2.52474,-12.262982 38.77266,-11.54163 52.83903,0.901689 59.87221,17.673121 28.31306,67.987415 -14.42704,23.08326 -12.44332,21.46022 -22.90292,17.85346 -98.10386,-34.08388 -173.66547,87.46391 -100.26791,161.04181 l 11.54163,11.54163 -8.11521,16.05007 c -20.19785,39.8547 -35.34624,52.83903 -51.93734,44.54348 z" style="stroke-width:1.80338"/>
	<path fill="#df3409" d="m 133.35563,67.08491 c 0.90169,-36.788946 31.55914,-66.0036969 68.34809,-64.921669 36.78895,0.9016898 66.0037,31.378807 64.92167,68.348091 C 265.7237,107.30028 235.06624,136.51503 198.09696,135.433 161.48835,134.71165 132.2736,104.05419 133.35563,67.08491 Z" style="stroke-width:1.80338"/>
	<path fill="#f7bb0f" d="m 240.29605,252.47234 c 0.90169,-36.96928 31.55914,-66.00369 68.34809,-64.92167 36.78894,0.90169 66.00369,31.55915 64.92167,68.34809 -0.90169,36.96929 -31.55915,66.0037 -68.3481,65.10201 -36.78894,-1.08203 -65.82335,-31.73948 -64.92166,-68.52843 z" style="stroke-width:1.80338"/>
	<path fill="#5cad2a" d="m 26.415213,252.47234 c 0.90169,-36.96928 31.559145,-66.00369 68.34809,-64.92167 36.788947,0.90169 66.003697,31.55915 64.921667,68.34809 -0.90169,36.96929 -31.55914,66.0037 -68.348088,65.10201 -36.788946,-1.08203 -66.003697,-31.73948 -64.921669,-68.52843 z" style="stroke-width:1.80338"/>
</svg>
