<?xml version="1.0" encoding="utf-8"?>
<!-- Generator: Adobe Illustrator 19.2.1, SVG Export Plug-In . SVG Version: 6.00 Build 0)  -->
<svg version="1.1" id="Layer_1" xmlns="http://www.w3.org/2000/svg" xmlns:xlink="http://www.w3.org/1999/xlink" x="0px" y="0px"
	 width="53.1px" height="56.3px" viewBox="0 0 53.1 56.3" style="enable-background:new 0 0 53.1 56.3;" xml:space="preserve">
<style type="text/css">
	.st0{fill:#495566;}
	.st1{clip-path:url(#SVGID_2_);fill:#495566;}
</style>
<g>
	<g>
		<g>
			<g>
				<path id="SVGID_3_" class="st0" d="M8.1,10.5c-3.3,0-6,0.4-6.9,2C0,14.6,2.5,18.9,5.6,23.2C5.8,23.1,6,23,6.3,22.9
					c0.8-0.3,1.7-0.6,2.6-0.8c0.9-0.2,1.8-0.2,2.8-0.2s1.9,0.1,2.8,0.4c0.9,0.2,1.8,0.5,2.6,0.9c0.8,0.4,1.6,0.8,2.3,1.3
					c0.7,0.5,1.4,1.1,2,1.8c0.6,0.6,1.2,1.3,1.6,2.1c0.5,0.8,0.9,1.6,1.2,2.4c0.3,0.8,0.6,1.7,0.8,2.6c0.2,0.9,0.2,1.9,0.2,2.8
					c0,1-0.1,1.9-0.4,2.8c-0.2,0.9-0.5,1.8-0.9,2.6s-0.8,1.6-1.4,2.3c-0.5,0.7-1.1,1.4-1.8,2c-0.5,0.5-1,0.8-1.6,1.2
					c2.2,4.8,4.7,9.1,7.2,9.1s4.9-4.3,7.1-9.1l0,0c-0.7-0.5-1.4-1.1-2-1.8c-0.6-0.6-1.2-1.3-1.6-2.1c-0.5-0.8-0.9-1.6-1.2-2.4
					c-0.3-0.8-0.6-1.7-0.8-2.6c-0.2-0.9-0.2-1.9-0.2-2.8c0-1,0.1-1.9,0.4-2.8c0.2-0.9,0.5-1.8,0.9-2.6c0.4-0.8,0.8-1.6,1.3-2.3
					c0.5-0.7,1.1-1.4,1.7-2s1.4-1.2,2.1-1.6c0.8-0.5,1.5-0.9,2.4-1.2c0.8-0.3,1.7-0.6,2.6-0.7c0.9-0.2,1.9-0.2,2.8-0.2
					c1,0,1.9,0.1,2.8,0.4c0.9,0.2,1.8,0.5,2.6,0.9h0.1c3.1-4.3,5.5-8.6,4.3-10.7c-1.3-2.2-6.2-2.2-11.5-1.6
					c-0.1,0.6-0.1,1.3-0.2,1.9c-0.2,0.9-0.5,1.8-0.9,2.6s-0.8,1.6-1.3,2.3c-0.5,0.7-1.1,1.4-1.8,2c-0.6,0.6-1.3,1.2-2.1,1.6
					c-0.8,0.5-1.6,0.9-2.4,1.2c-0.8,0.3-1.7,0.6-2.6,0.8c-0.9,0.2-1.9,0.2-2.8,0.2c-1,0-1.9-0.2-2.8-0.4c-0.9-0.2-1.8-0.5-2.6-0.9
					c-0.8-0.4-1.6-0.8-2.3-1.3c-0.7-0.5-1.4-1.1-2-1.7s-1.2-1.3-1.6-2.1c-0.5-0.8-0.9-1.5-1.2-2.4c-0.3-0.8-0.6-1.7-0.7-2.6
					c-0.1-0.4-0.1-0.8-0.1-1.1C11.2,10.7,9.5,10.5,8.1,10.5L8.1,10.5z"/>
			</g>
			<g>
				<defs>
					<path id="SVGID_1_" d="M8.1,10.5c-3.3,0-6,0.4-6.9,2C0,14.6,2.5,18.9,5.6,23.2C5.8,23.1,6,23,6.3,22.9c0.8-0.3,1.7-0.6,2.6-0.8
						c0.9-0.2,1.8-0.2,2.8-0.2s1.9,0.1,2.8,0.4c0.9,0.2,1.8,0.5,2.6,0.9c0.8,0.4,1.6,0.8,2.3,1.3c0.7,0.5,1.4,1.1,2,1.8
						c0.6,0.6,1.2,1.3,1.6,2.1c0.5,0.8,0.9,1.6,1.2,2.4c0.3,0.8,0.6,1.7,0.8,2.6c0.2,0.9,0.2,1.9,0.2,2.8c0,1-0.1,1.9-0.4,2.8
						c-0.2,0.9-0.5,1.8-0.9,2.6s-0.8,1.6-1.4,2.3c-0.5,0.7-1.1,1.4-1.8,2c-0.5,0.5-1,0.8-1.6,1.2c2.2,4.8,4.7,9.1,7.2,9.1
						s4.9-4.3,7.1-9.1l0,0c-0.7-0.5-1.4-1.1-2-1.8c-0.6-0.6-1.2-1.3-1.6-2.1c-0.5-0.8-0.9-1.6-1.2-2.4c-0.3-0.8-0.6-1.7-0.8-2.6
						c-0.2-0.9-0.2-1.9-0.2-2.8c0-1,0.1-1.9,0.4-2.8c0.2-0.9,0.5-1.8,0.9-2.6c0.4-0.8,0.8-1.6,1.3-2.3c0.5-0.7,1.1-1.4,1.7-2
						s1.4-1.2,2.1-1.6c0.8-0.5,1.5-0.9,2.4-1.2c0.8-0.3,1.7-0.6,2.6-0.7c0.9-0.2,1.9-0.2,2.8-0.2c1,0,1.9,0.1,2.8,0.4
						c0.9,0.2,1.8,0.5,2.6,0.9h0.1c3.1-4.3,5.5-8.6,4.3-10.7c-1.3-2.2-6.2-2.2-11.5-1.6c-0.1,0.6-0.1,1.3-0.2,1.9
						c-0.2,0.9-0.5,1.8-0.9,2.6s-0.8,1.6-1.3,2.3c-0.5,0.7-1.1,1.4-1.8,2c-0.6,0.6-1.3,1.2-2.1,1.6c-0.8,0.5-1.6,0.9-2.4,1.2
						c-0.8,0.3-1.7,0.6-2.6,0.8c-0.9,0.2-1.9,0.2-2.8,0.2c-1,0-1.9-0.2-2.8-0.4c-0.9-0.2-1.8-0.5-2.6-0.9c-0.8-0.4-1.6-0.8-2.3-1.3
						c-0.7-0.5-1.4-1.1-2-1.7s-1.2-1.3-1.6-2.1c-0.5-0.8-0.9-1.5-1.2-2.4c-0.3-0.8-0.6-1.7-0.7-2.6c-0.1-0.4-0.1-0.8-0.1-1.1
						C11.2,10.7,9.5,10.5,8.1,10.5L8.1,10.5z"/>
				</defs>
				<use xlink:href="#SVGID_1_"  style="overflow:visible;fill:#495566;"/>
				<clipPath id="SVGID_2_">
					<use xlink:href="#SVGID_1_"  style="overflow:visible;"/>
				</clipPath>
				<rect y="10.3" class="st1" width="53.1" height="46"/>
			</g>
		</g>
		<path class="st0" d="M17.1,9.2C17.2,4,21.6-0.1,26.8,0s9.4,4.5,9.2,9.7c-0.1,5.2-4.5,9.4-9.7,9.2C21.1,18.8,17,14.5,17.1,9.2z"/>
		<path class="st0" d="M32.3,35.5c0.1-5.2,4.5-9.4,9.7-9.2c5.2,0.1,9.4,4.5,9.2,9.7c-0.1,5.2-4.5,9.4-9.7,9.2
			C36.3,45.1,32.2,40.8,32.3,35.5z"/>
		<path class="st0" d="M1.9,35.5c0.1-5.2,4.5-9.4,9.7-9.2c5.2,0.1,9.4,4.5,9.2,9.7c-0.1,5.2-4.5,9.4-9.7,9.2
			C5.9,45.1,1.8,40.8,1.9,35.5z"/>
	</g>
</g>
</svg>
