<svg id="Layer_1" data-name="Layer 1" xmlns="http://www.w3.org/2000/svg" xmlns:xlink="http://www.w3.org/1999/xlink" viewBox="0 0 455.11 475.96"><defs><style>.cls-1{fill:none;}.cls-2{fill:#c63c85;}.cls-3{opacity:0.29;fill:url(#Points_Sematic);}.cls-4{fill:url(#linear-gradient);}</style><pattern id="Points_Sematic" data-name="Points Sematic" width="48" height="48" patternTransform="translate(4.06 36.46) rotate(90)" patternUnits="userSpaceOnUse" viewBox="0 0 48 48"><rect class="cls-1" width="48" height="48"/><circle class="cls-2" cx="24" cy="48" r="1.2"/><circle class="cls-2" cx="48" cy="48" r="1.2"/><circle class="cls-2" cx="24" cy="24" r="1.2"/><circle class="cls-2" cx="48" cy="24" r="1.2"/><circle class="cls-2" cx="36" cy="36" r="1.2"/><circle class="cls-2" cx="12" cy="36" r="1.2"/><circle class="cls-2" cx="36" cy="12" r="1.2"/><circle class="cls-2" cx="12" cy="12" r="1.2"/><circle class="cls-2" cy="48" r="1.2"/><circle class="cls-2" cy="24" r="1.2"/><circle class="cls-2" cx="24" r="1.2"/><circle class="cls-2" cx="48" r="1.2"/><circle class="cls-2" r="1.2"/></pattern><linearGradient id="linear-gradient" x1="4235.9" y1="-2977.22" x2="4381.74" y2="-3123.07" gradientTransform="translate(-2744.82 -3993.07) rotate(90)" gradientUnits="userSpaceOnUse"><stop offset="0" stop-color="#fff"/><stop offset="0.22" stop-color="#fff" stop-opacity="0.76"/><stop offset="0.6" stop-color="#fff" stop-opacity="0.36"/><stop offset="0.87" stop-color="#fff" stop-opacity="0.1"/><stop offset="1" stop-color="#fff" stop-opacity="0"/></linearGradient></defs><title>bg-element</title><polygon class="cls-3" points="0 475.96 238.61 229.94 455.11 0 455.11 475.96 0 475.96"/><polygon class="cls-4" points="0 475.96 238.61 229.94 455.11 0 455.11 475.96 0 475.96"/></svg>