<?xml version="1.0" encoding="utf-8"?>
<!-- Generator: Adobe Illustrator 19.2.1, SVG Export Plug-In . SVG Version: 6.00 Build 0)  -->
<svg version="1.1" id="Layer_1" xmlns="http://www.w3.org/2000/svg" xmlns:xlink="http://www.w3.org/1999/xlink" x="0px" y="0px"
	 width="1094.9px" height="367.7px" viewBox="0 0 1094.9 367.7" style="enable-background:new 0 0 1094.9 367.7;"
	 xml:space="preserve">
<style type="text/css">
	.st0{fill:none;}
	.st1{fill:#2997E4;}
	.st2{opacity:0.5;fill:url(#SVGID_1_);}
	.st3{opacity:0.5;fill:url(#SVGID_2_);}
	.st4{opacity:0.5;fill:url(#SVGID_3_);}
</style>
<pattern  x="-209.8" y="-324.5" width="48" height="48" patternUnits="userSpaceOnUse" id="_x36__dpi_10_x25_" viewBox="1.2 -49.2 48 48" style="overflow:visible;">
	<g>
		<rect x="1.2" y="-49.2" class="st0" width="48" height="48"/>
		<g>
			<circle class="st1" cx="25.2" cy="-1.2" r="1.2"/>
			<circle class="st1" cx="49.2" cy="-1.2" r="1.2"/>
			<circle class="st1" cx="25.2" cy="-25.2" r="1.2"/>
			<circle class="st1" cx="49.2" cy="-25.2" r="1.2"/>
			<circle class="st1" cx="37.2" cy="-13.2" r="1.2"/>
			<circle class="st1" cx="13.2" cy="-13.2" r="1.2"/>
			<circle class="st1" cx="37.2" cy="-37.2" r="1.2"/>
			<circle class="st1" cx="13.2" cy="-37.2" r="1.2"/>
		</g>
		<g>
			<circle class="st1" cx="1.2" cy="-1.2" r="1.2"/>
			<circle class="st1" cx="1.2" cy="-25.2" r="1.2"/>
		</g>
		<g>
			<circle class="st1" cx="25.2" cy="-49.2" r="1.2"/>
			<circle class="st1" cx="49.2" cy="-49.2" r="1.2"/>
		</g>
		<g>
			<circle class="st1" cx="1.2" cy="-49.2" r="1.2"/>
		</g>
	</g>
</pattern>
<linearGradient id="SVGID_1_" gradientUnits="userSpaceOnUse" x1="362.9708" y1="-5289.3467" x2="263.1148" y2="-5201.144" gradientTransform="matrix(-0.8553 -0.5181 0.5181 -0.8553 3090.5085 -4220.8843)">
	<stop  offset="0" style="stop-color:#2997E4;stop-opacity:0.2"/>
	<stop  offset="1" style="stop-color:#2997E4;stop-opacity:0"/>
</linearGradient>
<circle class="st2" cx="103.5" cy="103.5" r="103.5"/>
<pattern  id="SVGID_2_" xlink:href="#_x36__dpi_10_x25_" patternTransform="matrix(-0.4692 -0.2842 0.2842 -0.4692 -8779.8457 -12346.1904)">
</pattern>
<polygon class="st3" points="117,112.1 371.1,183.3 182.4,367.7 "/>
<linearGradient id="SVGID_3_" gradientUnits="userSpaceOnUse" x1="1056.4309" y1="251.0318" x2="986.2117" y2="313.0565">
	<stop  offset="0" style="stop-color:#2997E4;stop-opacity:0.2"/>
	<stop  offset="1" style="stop-color:#2997E4;stop-opacity:0"/>
</linearGradient>
<circle class="st4" cx="1022.2" cy="281.3" r="72.7"/>
</svg>
