<?xml version="1.0" encoding="utf-8"?>
<!-- Generator: Adobe Illustrator 19.2.1, SVG Export Plug-In . SVG Version: 6.00 Build 0)  -->
<svg version="1.1" id="Layer_1" xmlns="http://www.w3.org/2000/svg" xmlns:xlink="http://www.w3.org/1999/xlink" x="0px" y="0px"
	 width="211px" height="81.8px" viewBox="0 0 211 81.8" style="enable-background:new 0 0 211 81.8;" xml:space="preserve">
<style type="text/css">
	.st0{opacity:0.2;}
	.st1{fill:#2997E4;}
</style>
<g>
	<g class="st0">
		<path class="st1" d="M12.7,9.7c0,1.7-1.3,3-3,3H7.2c-1.7,0-3-1.3-3-3V7.2c0-1.7,1.3-3,3-3h2.4c1.7,0,3,1.3,3,3V9.7z"/>
	</g>
	<g class="st0">
		<path class="st1" d="M49.2,13.9c0,1.7-1.3,3-3,3H35.4c-1.7,0-3-1.4-3-3V3c0-1.6,1.3-3,3-3h10.9c1.7,0,3,1.4,3,3V13.9z"/>
	</g>
	<g class="st0">
		<path class="st1" d="M111.8,11.8c0,1.7-1.4,3-3,3h-6.7c-1.7,0-3-1.3-3-3V5.1c0-1.7,1.3-3,3-3h6.7c1.6,0,3,1.3,3,3V11.8z"/>
	</g>
	<g class="st0">
		<path class="st1" d="M174.4,9.7c0,1.7-1.4,3-3,3H169c-1.6,0-3-1.3-3-3V7.2c0-1.7,1.4-3,3-3h2.4c1.6,0,3,1.3,3,3V9.7z"/>
	</g>
	<g class="st0">
		<path class="st1" d="M16.9,46.4c0,1.6-1.4,3-3,3H3c-1.6,0-3-1.4-3-3V35.5c0-1.7,1.4-3,3-3h10.9c1.7,0,3,1.3,3,3V46.4z"/>
	</g>
	<g class="st0">
		<path class="st1" d="M47.1,44.3c0,1.7-1.4,3-3,3h-6.7c-1.7,0-3-1.3-3-3v-6.7c0-1.7,1.3-3,3-3h6.7c1.6,0,3,1.3,3,3V44.3z"/>
	</g>
	<g class="st0">
		<path class="st1" d="M81.6,46.4c0,1.6-1.3,3-3,3H67.7c-1.7,0-3-1.4-3-3V35.5c0-1.7,1.3-3,3-3h10.9c1.7,0,3,1.3,3,3V46.4z"/>
	</g>
	<g class="st0">
		<path class="st1" d="M146.3,46.4c0,1.6-1.4,3-3,3h-10.9c-1.7,0-3-1.4-3-3V35.5c0-1.7,1.3-3,3-3h10.9c1.6,0,3,1.3,3,3V46.4z"/>
	</g>
	<g class="st0">
		<path class="st1" d="M176.5,44.3c0,1.7-1.4,3-3,3h-6.7c-1.6,0-3-1.3-3-3v-6.7c0-1.7,1.4-3,3-3h6.7c1.6,0,3,1.3,3,3V44.3z"/>
	</g>
	<g class="st0">
		<path class="st1" d="M211,46.4c0,1.6-1.3,3-3,3h-10.9c-1.6,0-3-1.4-3-3V35.5c0-1.7,1.4-3,3-3H208c1.7,0,3,1.3,3,3V46.4z"/>
	</g>
	<g class="st0">
		<path class="st1" d="M16.9,78.8c0,1.6-1.4,3-3,3H3c-1.6,0-3-1.4-3-3V67.9c0-1.7,1.4-3,3-3h10.9c1.7,0,3,1.3,3,3V78.8z"/>
	</g>
	<g class="st0">
		<path class="st1" d="M79.5,76.7c0,1.7-1.3,3-3,3h-6.7c-1.6,0-3-1.3-3-3V70c0-1.6,1.4-3,3-3h6.7c1.7,0,3,1.4,3,3V76.7z"/>
	</g>
	<g class="st0">
		<path class="st1" d="M113.9,78.8c0,1.6-1.3,3-3,3h-10.9c-1.6,0-3-1.4-3-3V67.9c0-1.7,1.4-3,3-3h10.9c1.7,0,3,1.3,3,3V78.8z"/>
	</g>
	<g class="st0">
		<path class="st1" d="M142.1,74.5c0,1.7-1.4,3-3,3h-2.4c-1.6,0-3-1.3-3-3v-2.4c0-1.7,1.4-3,3-3h2.4c1.6,0,3,1.3,3,3V74.5z"/>
	</g>
	<g class="st0">
		<path class="st1" d="M206.8,74.5c0,1.7-1.4,3-3,3h-2.4c-1.6,0-3-1.3-3-3v-2.4c0-1.7,1.4-3,3-3h2.4c1.6,0,3,1.3,3,3V74.5z"/>
	</g>
</g>
</svg>
