<?xml version="1.0" encoding="utf-8"?>
<!-- Generator: Adobe Illustrator 19.2.1, SVG Export Plug-In . SVG Version: 6.00 Build 0)  -->
<svg version="1.1" id="Layer_1" xmlns="http://www.w3.org/2000/svg" xmlns:xlink="http://www.w3.org/1999/xlink" x="0px" y="0px"
	 width="455.1px" height="476px" viewBox="0 0 455.1 476" style="enable-background:new 0 0 455.1 476;" xml:space="preserve">
<style type="text/css">
	.st0{fill:none;}
	.st1{fill:#C63C85;}
	.st2{opacity:0.29;fill:url(#SVGID_1_);}
	.st3{fill:url(#SVGID_2_);}
</style>
<pattern  x="-521.7" y="-262.3" width="48" height="48" patternUnits="userSpaceOnUse" id="Points_Sematic" viewBox="1.2 -49.2 48 48" style="overflow:visible;">
	<g>
		<rect x="1.2" y="-49.2" class="st0" width="48" height="48"/>
		<g>
			<circle class="st1" cx="25.2" cy="-1.2" r="1.2"/>
			<circle class="st1" cx="49.2" cy="-1.2" r="1.2"/>
			<circle class="st1" cx="25.2" cy="-25.2" r="1.2"/>
			<circle class="st1" cx="49.2" cy="-25.2" r="1.2"/>
			<circle class="st1" cx="37.2" cy="-13.2" r="1.2"/>
			<circle class="st1" cx="13.2" cy="-13.2" r="1.2"/>
			<circle class="st1" cx="37.2" cy="-37.2" r="1.2"/>
			<circle class="st1" cx="13.2" cy="-37.2" r="1.2"/>
		</g>
		<g>
			<circle class="st1" cx="1.2" cy="-1.2" r="1.2"/>
			<circle class="st1" cx="1.2" cy="-25.2" r="1.2"/>
		</g>
		<g>
			<circle class="st1" cx="25.2" cy="-49.2" r="1.2"/>
			<circle class="st1" cx="49.2" cy="-49.2" r="1.2"/>
		</g>
		<g>
			<circle class="st1" cx="1.2" cy="-49.2" r="1.2"/>
		</g>
	</g>
</pattern>
<g>
	
		<pattern  id="SVGID_1_" xlink:href="#Points_Sematic" patternTransform="matrix(-8.979359e-011 1 1 8.979359e-011 92.2258 -47.3723)">
	</pattern>
	<polygon class="st2" points="455.1,476 216.5,229.9 0,0 0,476 	"/>
	
		<linearGradient id="SVGID_2_" gradientUnits="userSpaceOnUse" x1="4235.9004" y1="-2977.2234" x2="4381.7441" y2="-3123.0671" gradientTransform="matrix(-8.979359e-011 1 1 8.979359e-011 3199.9246 -3993.0667)">
		<stop  offset="0" style="stop-color:#FFFFFF"/>
		<stop  offset="1" style="stop-color:#FFFFFF;stop-opacity:0"/>
	</linearGradient>
	<polygon class="st3" points="455.1,476 216.5,229.9 0,0 0,476 	"/>
</g>
</svg>
