<?xml version="1.0" encoding="utf-8"?>
<!-- Generator: Adobe Illustrator 19.2.1, SVG Export Plug-In . SVG Version: 6.00 Build 0)  -->
<svg version="1.1" id="Layer_1" xmlns="http://www.w3.org/2000/svg" xmlns:xlink="http://www.w3.org/1999/xlink" x="0px" y="0px"
	 width="39px" height="31.6px" viewBox="0 0 39 31.6" style="enable-background:new 0 0 39 31.6;" xml:space="preserve">
<style type="text/css">
	.st0{fill:#1D82C8;}
</style>
<g>
	<path class="st0" d="M17.3,3.5c-1.8,1.1-3.3,2-4.5,2.7C11.8,7,10.6,8,9.4,9.2c-1.1,1.2-1.9,2.4-2.5,3.7c-0.6,1.3-1,2.9-1.2,5h2.8
		c2.4,0,4.3,0.6,5.7,1.8c1.4,1.2,2.1,2.9,2.1,5.2c0,1.6-0.6,3.2-1.8,4.6c-1.2,1.4-2.9,2.1-5.1,2.1c-3.4,0-5.8-1.1-7.2-3.3
		C0.7,26.1,0,23.2,0,19.7c0-2.5,0.5-4.8,1.6-6.9c1.1-2.1,2.4-3.9,4-5.6C7.2,5.5,8.9,4,10.7,2.9C12.5,1.7,14,0.7,15.2,0L17.3,3.5z
		 M39,3.5c-1.8,1.1-3.3,2-4.5,2.7c-1.1,0.8-2.3,1.8-3.5,3c-1.1,1.2-2,2.4-2.5,3.7c-0.6,1.3-1,2.9-1.2,4.9h2.8c2.4,0,4.3,0.6,5.7,1.8
		c1.4,1.2,2.1,2.9,2.1,5.2c0,1.6-0.6,3.2-1.8,4.6c-1.2,1.4-2.9,2.1-5.1,2.1c-3.4,0-5.8-1.1-7.2-3.3c-1.4-2.2-2.2-5.1-2.2-8.7
		c0-2.5,0.5-4.8,1.6-6.9c1.1-2.1,2.4-3.9,4-5.6c1.6-1.7,3.3-3.1,5.1-4.3c1.8-1.2,3.3-2.1,4.5-2.9L39,3.5z"/>
</g>
</svg>
