<?xml version="1.0" encoding="utf-8"?>
<!-- Generator: Adobe Illustrator 19.2.1, SVG Export Plug-In . SVG Version: 6.00 Build 0)  -->
<svg version="1.1" id="Layer_1" xmlns="http://www.w3.org/2000/svg" xmlns:xlink="http://www.w3.org/1999/xlink" x="0px" y="0px"
	 width="56.6px" height="60px" viewBox="0 0 56.6 60" style="enable-background:new 0 0 56.6 60;" xml:space="preserve">
<style type="text/css">
	.st0{clip-path:url(#SVGID_3_);fill:url(#SVGID_4_);}
	.st1{fill:url(#SVGID_5_);}
	.st2{fill:url(#SVGID_6_);}
	.st3{fill:url(#SVGID_7_);}
</style>
<g>
	<g>
		<defs>
			<path id="SVGID_1_" d="M8.7,11.2c-3.6,0-6.4,0.5-7.3,2.1C0,15.6,2.7,20.2,6,24.8c0.2-0.1,0.5-0.3,0.7-0.4
				c0.9-0.4,1.8-0.6,2.8-0.8c1-0.2,2-0.2,3-0.2c1,0,2,0.2,3,0.4c1,0.2,1.9,0.5,2.8,0.9c0.9,0.4,1.7,0.9,2.5,1.4
				c0.8,0.6,1.5,1.2,2.1,1.9c0.6,0.7,1.3,1.4,1.7,2.2c0.5,0.8,1,1.7,1.3,2.6c0.4,0.9,0.6,1.8,0.8,2.8c0.2,1,0.2,2,0.2,3
				c0,1-0.2,2-0.4,3s-0.5,1.9-0.9,2.8c-0.4,0.9-0.9,1.7-1.5,2.5c-0.6,0.8-1.2,1.5-1.9,2.1c-0.5,0.5-1.1,0.9-1.7,1.3
				c2.3,5.2,5,9.7,7.6,9.7s5.3-4.6,7.6-9.7c0,0,0,0,0,0c-0.8-0.6-1.5-1.2-2.2-1.9c-0.6-0.7-1.2-1.4-1.7-2.2
				c-0.5-0.8-0.9-1.7-1.3-2.5s-0.6-1.8-0.8-2.8c-0.2-1-0.2-2-0.2-3c0-1,0.2-2,0.4-3c0.2-1,0.5-1.9,0.9-2.7c0.4-0.9,0.9-1.7,1.4-2.5
				c0.6-0.8,1.2-1.5,1.9-2.2c0.7-0.6,1.5-1.3,2.3-1.7c0.8-0.5,1.7-0.9,2.5-1.3c0.9-0.4,1.8-0.6,2.8-0.8c1-0.2,2-0.3,3-0.2
				c1,0,2,0.2,3,0.4c1,0.2,1.9,0.5,2.7,0.9c0,0,0,0,0.1,0c3.3-4.6,5.9-9.2,4.6-11.4c-1.3-2.3-6.6-2.3-12.3-1.7
				c-0.1,0.7-0.1,1.3-0.2,2c-0.2,0.9-0.5,1.9-0.9,2.8c-0.4,0.9-0.9,1.7-1.4,2.5c-0.5,0.8-1.2,1.5-1.9,2.1c-0.7,0.6-1.4,1.3-2.2,1.7
				c-0.8,0.5-1.7,1-2.6,1.3c-0.9,0.4-1.8,0.6-2.8,0.8c-1,0.2-2,0.2-3,0.2c-1,0-2-0.2-3-0.4s-1.9-0.5-2.8-0.9
				c-0.9-0.4-1.7-0.9-2.5-1.4s-1.5-1.2-2.1-1.9c-0.6-0.7-1.2-1.4-1.7-2.2c-0.5-0.8-1-1.7-1.3-2.5c-0.4-0.9-0.6-1.8-0.8-2.8
				c-0.1-0.4-0.1-0.8-0.1-1.2C11.9,11.4,10.2,11.2,8.7,11.2L8.7,11.2z"/>
		</defs>
		<linearGradient id="SVGID_2_" gradientUnits="userSpaceOnUse" x1="28.2737" y1="11.2003" x2="28.2737" y2="60">
			<stop  offset="0" style="stop-color:#2997E4"/>
			<stop  offset="0.5018" style="stop-color:#1379C8"/>
			<stop  offset="1" style="stop-color:#0060B0"/>
		</linearGradient>
		<use xlink:href="#SVGID_1_"  style="overflow:visible;fill:url(#SVGID_2_);"/>
		<clipPath id="SVGID_3_">
			<use xlink:href="#SVGID_1_"  style="overflow:visible;"/>
		</clipPath>
		<linearGradient id="SVGID_4_" gradientUnits="userSpaceOnUse" x1="28.3103" y1="10.9571" x2="28.3103" y2="60">
			<stop  offset="0" style="stop-color:#2997E4"/>
			<stop  offset="0.5018" style="stop-color:#1379C8"/>
			<stop  offset="1" style="stop-color:#0060B0"/>
		</linearGradient>
		<rect y="11" class="st0" width="56.6" height="49"/>
	</g>
	<linearGradient id="SVGID_5_" gradientUnits="userSpaceOnUse" x1="28.3103" y1="0" x2="28.3103" y2="20.193">
		<stop  offset="0" style="stop-color:#EA5634"/>
		<stop  offset="0.3672" style="stop-color:#D94D2A"/>
		<stop  offset="1" style="stop-color:#C03F1B"/>
	</linearGradient>
	<path class="st1" d="M18.2,9.8C18.4,4.3,23-0.2,28.6,0c5.6,0.1,10,4.8,9.8,10.3c-0.2,5.6-4.8,10-10.4,9.8
		C22.5,20.1,18.1,15.4,18.2,9.8z"/>
	<linearGradient id="SVGID_6_" gradientUnits="userSpaceOnUse" x1="44.4946" y1="28.0532" x2="44.4946" y2="48.2676">
		<stop  offset="0" style="stop-color:#FCEE21"/>
		<stop  offset="0.4686" style="stop-color:#F4D427"/>
		<stop  offset="1" style="stop-color:#EDBB2C"/>
	</linearGradient>
	<path class="st2" d="M34.4,37.9c0.2-5.6,4.8-10,10.3-9.8c5.6,0.2,10,4.8,9.8,10.3c-0.2,5.6-4.8,10-10.3,9.9
		C38.7,48.1,34.3,43.5,34.4,37.9z"/>
	<linearGradient id="SVGID_7_" gradientUnits="userSpaceOnUse" x1="12.1266" y1="28.0532" x2="12.1266" y2="48.2676">
		<stop  offset="0" style="stop-color:#5EAF2C"/>
		<stop  offset="0.3804" style="stop-color:#539D2E"/>
		<stop  offset="1" style="stop-color:#438432"/>
	</linearGradient>
	<path class="st3" d="M2,37.9c0.2-5.6,4.8-10,10.3-9.8s10,4.8,9.8,10.3c-0.1,5.6-4.8,10-10.3,9.9C6.3,48.1,1.9,43.5,2,37.9z"/>
</g>
</svg>
