<?xml version="1.0" encoding="utf-8"?>
<!-- Generator: Adobe Illustrator 19.2.1, SVG Export Plug-In . SVG Version: 6.00 Build 0)  -->
<svg version="1.1" id="Layer_1" xmlns="http://www.w3.org/2000/svg" xmlns:xlink="http://www.w3.org/1999/xlink" x="0px" y="0px"
	 width="244.5px" height="268.4px" viewBox="0 0 244.5 268.4" style="enable-background:new 0 0 244.5 268.4;" xml:space="preserve"
	>
<style type="text/css">
	.st0{clip-path:url(#SVGID_2_);fill:#1D82C8;}
	.st1{fill:#DF3409;}
	.st2{fill:#F2E219;}
	.st3{fill:#5CAD2A;}
</style>
<g>
	<g>
		<defs>
			<path id="SVGID_1_" d="M34.3,50.1c-15.9-0.2-28.6,2.1-32.7,9.3c-6,10.3,5.9,30.8,20.7,51.4c1.1-0.6,2.2-1.2,3.3-1.7
				c4-1.6,8.2-2.8,12.5-3.6c4.4-0.8,8.8-1.1,13.3-1c4.6,0.2,9.1,0.7,13.3,1.7c4.3,1,8.5,2.4,12.4,4.2c3.9,1.8,7.6,3.9,11.1,6.4
				c3.4,2.5,6.6,5.3,9.6,8.4c2.9,3.1,5.6,6.4,7.8,10c2.3,3.6,4.3,7.4,5.9,11.5c1.6,4,2.8,8.2,3.6,12.5c0.8,4.4,1.1,8.8,0.9,13.5
				c-0.1,4.5-0.7,8.9-1.7,13.2c-1,4.3-2.3,8.5-4.1,12.4c-1.8,3.9-4,7.6-6.5,11.1c-2.5,3.5-5.3,6.7-8.4,9.6c-2.3,2.2-4.9,4-7.5,5.9
				c10.5,23.1,22.3,43.5,34.2,43.5c11.9,0,23.6-20.4,34-43.4c-0.1,0-0.1-0.1-0.1-0.1c-3.4-2.5-6.7-5.3-9.7-8.4
				c-2.9-3.1-5.5-6.4-7.8-10c-2.3-3.6-4.2-7.4-5.8-11.4c-1.6-4-2.8-8.2-3.6-12.5c-0.8-4.4-1.1-8.8-1-13.4c0.1-4.6,0.7-9.1,1.7-13.4
				c1-4.3,2.4-8.4,4.2-12.3c1.8-3.9,3.9-7.6,6.4-11.1c2.5-3.5,5.3-6.7,8.3-9.7c3.1-2.9,6.5-5.6,10.1-7.8c3.6-2.3,7.4-4.2,11.4-5.8
				c4-1.6,8.2-2.8,12.5-3.5c4.4-0.8,8.9-1.2,13.5-1c4.6,0.1,9.1,0.7,13.4,1.7c4.3,1,8.4,2.4,12.3,4.2c0.1,0.1,0.2,0.2,0.3,0.2
				c14.7-20.5,26.4-41,20.5-51.2c-6-10.3-29.6-10.3-54.9-7.8c-0.3,3-0.5,6-1.1,8.9c-1,4.2-2.4,8.4-4.2,12.4
				c-1.8,3.9-3.9,7.6-6.4,11.1c-2.4,3.4-5.3,6.6-8.4,9.6c-3.1,2.9-6.4,5.6-10,7.8c-3.6,2.3-7.4,4.3-11.5,5.9
				c-4,1.6-8.2,2.8-12.5,3.6c-4.4,0.8-8.8,1.1-13.4,1c-4.6-0.1-9-0.8-13.3-1.8c-4.3-1-8.5-2.3-12.4-4.2c-3.9-1.8-7.6-3.9-11.1-6.4
				c-3.5-2.5-6.7-5.3-9.6-8.3c-2.9-3.1-5.5-6.4-7.8-10c-2.3-3.6-4.3-7.4-5.9-11.4c-1.6-4-2.8-8.2-3.5-12.5c-0.3-1.7-0.3-3.6-0.5-5.4
				C48.9,51,41.1,50.1,34.3,50.1L34.3,50.1z"/>
		</defs>
		<use xlink:href="#SVGID_1_"  style="overflow:visible;fill:#1D82C8;"/>
		<clipPath id="SVGID_2_">
			<use xlink:href="#SVGID_1_"  style="overflow:visible;"/>
		</clipPath>
		<rect x="-4.4" y="49" class="st0" width="253.3" height="219.4"/>
	</g>
	<path class="st1" d="M77.1,44c0.6-24.9,21.4-44.7,46.3-44c24.9,0.6,44.7,21.3,44,46.3c-0.7,24.9-21.4,44.7-46.4,44
		C96.1,89.7,76.4,69,77.1,44z"/>
	<path class="st2" d="M149.5,169.5c0.7-25,21.4-44.7,46.3-44c24.9,0.7,44.7,21.4,44,46.3c-0.7,25-21.4,44.7-46.3,44.1
		C168.6,215.2,148.9,194.4,149.5,169.5z"/>
	<path class="st3" d="M4.7,169.5c0.7-25,21.4-44.7,46.3-44c24.9,0.7,44.7,21.4,44,46.3c-0.6,25-21.4,44.7-46.3,44.1
		C23.7,215.2,4,194.4,4.7,169.5z"/>
</g>
</svg>
